<svg width="50" height="50" viewBox="0 0 50 50" fill="none" xmlns="http://www.w3.org/2000/svg">
<g id="devices">
<mask id="mask0_114_49" style="mask-type:alpha" maskUnits="userSpaceOnUse" x="0" y="0" width="50" height="50">
<rect id="Bounding box" width="50" height="50" fill="#D9D9D9"/>
</mask>
<g mask="url(#mask0_114_49)">
<path id="devices_2" d="M4.16669 41.6668V35.4168H8.33335V12.5002C8.33335 11.3543 8.74134 10.3734 9.55731 9.55745C10.3733 8.74148 11.3542 8.3335 12.5 8.3335H43.75V12.5002H12.5V35.4168H25V41.6668H4.16669ZM31.25 41.6668C30.6597 41.6668 30.165 41.4672 29.7656 41.0679C29.3663 40.6686 29.1667 40.1738 29.1667 39.5835V18.7502C29.1667 18.1599 29.3663 17.6651 29.7656 17.2658C30.165 16.8665 30.6597 16.6668 31.25 16.6668H43.75C44.3403 16.6668 44.8351 16.8665 45.2344 17.2658C45.6337 17.6651 45.8334 18.1599 45.8334 18.7502V39.5835C45.8334 40.1738 45.6337 40.6686 45.2344 41.0679C44.8351 41.4672 44.3403 41.6668 43.75 41.6668H31.25ZM33.3334 35.4168H41.6667V20.8335H33.3334V35.4168Z" fill="#1C1B1F"/>
</g>
</g>
</svg>
