<svg width="50" height="50" viewBox="0 0 50 50" fill="none" xmlns="http://www.w3.org/2000/svg">
<g id="notifications">
<mask id="mask0_114_61" style="mask-type:alpha" maskUnits="userSpaceOnUse" x="0" y="0" width="50" height="50">
<rect id="Bounding box" width="50" height="50" fill="#D9D9D9"/>
</mask>
<g mask="url(#mask0_114_61)">
<path id="notifications_2" d="M8.33331 39.5832V35.4165H12.5V20.8332C12.5 17.9512 13.368 15.3905 15.1041 13.1509C16.8403 10.9113 19.0972 9.44428 21.875 8.74984V7.2915C21.875 6.42345 22.1788 5.6856 22.7864 5.07796C23.3941 4.47032 24.1319 4.1665 25 4.1665C25.868 4.1665 26.6059 4.47032 27.2135 5.07796C27.8212 5.6856 28.125 6.42345 28.125 7.2915V8.74984C30.9028 9.44428 33.1597 10.9113 34.8958 13.1509C36.6319 15.3905 37.5 17.9512 37.5 20.8332V35.4165H41.6666V39.5832H8.33331ZM25 45.8332C23.8541 45.8332 22.8732 45.4252 22.0573 44.6092C21.2413 43.7932 20.8333 42.8123 20.8333 41.6665H29.1666C29.1666 42.8123 28.7587 43.7932 27.9427 44.6092C27.1267 45.4252 26.1458 45.8332 25 45.8332ZM16.6666 35.4165H33.3333V20.8332C33.3333 18.5415 32.5173 16.5797 30.8854 14.9478C29.2535 13.3158 27.2916 12.4998 25 12.4998C22.7083 12.4998 20.7465 13.3158 19.1146 14.9478C17.4826 16.5797 16.6666 18.5415 16.6666 20.8332V35.4165Z" fill="#1C1B1F"/>
</g>
</g>
</svg>
