<svg width="1728" height="1117" viewBox="0 0 1728 1117" fill="none" xmlns="http://www.w3.org/2000/svg">
<g filter="url(#filter0_f_155_112)">
<path fill-rule="evenodd" clip-rule="evenodd" d="M1282.28 602.082C1399.18 611.4 1493.8 654.83 1562.65 706.469C1620.52 749.877 1614.48 803.969 1622.43 857.206C1631.56 918.395 1677.35 984.073 1611.6 1034.26C1539.09 1089.61 1408.14 1114.77 1282.28 1116.85C1152.56 1119 1017.33 1098.1 932.065 1045.49C850.729 995.314 866.134 923.717 861.418 857.206C856.397 786.388 816.842 707.014 904.306 653.993C994.004 599.619 1148.56 591.423 1282.28 602.082Z" fill="#3021DA"/>
<path fill-rule="evenodd" clip-rule="evenodd" d="M430.22 447.061C539.584 424.845 652.883 481.484 731.216 541.156C807.752 599.459 870.58 682.083 840.479 759.587C812.781 830.904 674.539 832.228 598.854 881.963C531.093 926.492 520.459 1018.58 430.22 1029.19C337.401 1040.1 267.459 973.954 196.395 929.271C116.665 879.14 -15.2231 835.182 1.43932 759.587C18.3962 682.656 185.135 691.91 260.882 636.7C337.015 581.209 326.31 468.169 430.22 447.061Z" fill="#6443EB"/>
<path fill-rule="evenodd" clip-rule="evenodd" d="M1324.1 48.9596C1449.09 45.2818 1592.4 42.0348 1674.65 120.519C1754.84 197.034 1726.57 312.544 1705.11 412.529C1688.04 492.071 1640.21 561.718 1568.34 615.98C1500.47 667.217 1415.23 692.441 1324.1 700.176C1219.61 709.047 1094.26 727.523 1024.45 662.149C955.407 597.501 1021.39 498.975 1016.92 412.529C1012.04 318.166 932.22 217.682 997.478 140.444C1066.21 59.1016 1204.77 52.471 1324.1 48.9596Z" fill="#6335E8"/>
<path fill-rule="evenodd" clip-rule="evenodd" d="M589.572 0.993846C694.293 -6.854 791.357 33.0046 864.65 77.194C936.514 120.521 963.639 177.81 981.228 237.126C1004.17 314.496 1056.44 399.271 979.257 463.692C894.845 534.145 737.188 566.534 589.572 564.013C445.522 561.552 315.226 514.718 222.13 450.76C136.375 391.844 79.4412 311.682 113.768 237.126C144.089 171.269 288.122 157.978 377.31 113.716C453.078 76.1133 490.772 8.39801 589.572 0.993846Z" fill="#7A55E3"/>
</g>
<defs>
<filter id="filter0_f_155_112" x="-400" y="-400" width="2528" height="1917" filterUnits="userSpaceOnUse" color-interpolation-filters="sRGB">
<feFlood flood-opacity="0" result="BackgroundImageFix"/>
<feBlend mode="normal" in="SourceGraphic" in2="BackgroundImageFix" result="shape"/>
<feGaussianBlur stdDeviation="200" result="effect1_foregroundBlur_155_112"/>
</filter>
</defs>
</svg>
